<svg width="16" height="16" viewBox="0 0 16 16" fill="none" xmlns="http://www.w3.org/2000/svg">
<path d="M4.66665 1.33333C5.85331 1.33333 6.44665 2.77333 5.61331 3.61333C4.77331 4.44667 3.33331 3.85333 3.33331 2.66667C3.33331 2.31304 3.47379 1.97391 3.72384 1.72386C3.97389 1.47381 4.31302 1.33333 4.66665 1.33333ZM3.66665 4.66667H5.66665C6.02027 4.66667 6.35941 4.80714 6.60946 5.05719C6.8595 5.30724 6.99998 5.64638 6.99998 6V9.66667H5.99998V14.6667H3.33331V9.66667H2.33331V6C2.33331 5.64638 2.47379 5.30724 2.72384 5.05719C2.97389 4.80714 3.31302 4.66667 3.66665 4.66667ZM12.6666 5.33333H14L12 2.66667L9.99998 5.33333H11.3333V10.6667H9.99998L12 13.3333L14 10.6667H12.6666V5.33333ZM14.6666 1.33333H9.33331V2.66667H14.6666V1.33333ZM14.6666 13.3333H9.33331V14.6667H14.6666" fill="white"/>
</svg>
