<svg width="97" height="69" viewBox="0 0 97 69" fill="none" xmlns="http://www.w3.org/2000/svg">
<path d="M5.64262 0H18.5225C21.6485 0 24.1651 2.57024 24.1651 5.76286V50.2371C24.1651 53.4298 21.6485 56 18.5225 56H5.64262C2.51661 56 0 53.4298 0 50.2371V5.76286C0 2.57024 2.51661 0 5.64262 0Z" fill="white"/>
<path d="M15.3233 10.2649L15.3413 10.4543C15.7299 10.6889 15.933 10.8783 16.3303 11.1399C17.3725 11.8164 18.6534 13.0161 18.4943 17.1383C18.7944 18.0403 18.927 19.7992 19.192 20.3584C19.7308 21.4679 20.1017 22.1895 20.2606 23.2268C20.2606 23.2268 20.4197 24.8505 20.6227 24.9677C21.7001 25.2203 21.3912 25.3285 21.5413 25.527C21.7089 25.7435 22.336 25.7344 22.336 26.3298C22.5569 26.6274 22.7247 26.9251 22.8394 27.2498V5.80897C22.8394 3.35549 20.8964 1.37106 18.5028 1.37106H14.3605C15.0229 1.61461 15.4027 1.90325 15.6236 2.35426C16.1533 2.39936 16.7807 3.61708 15.8002 5.43012C16.2328 5.73681 15.8972 6.18781 15.5881 6.70196C15.4909 6.86432 15.3938 7.16199 15.1023 7.14395C14.7137 7.96478 14.2632 8.74051 13.919 8.78561C13.8219 8.91189 13.751 9.26368 13.9012 9.42604C14.405 9.66057 15.0141 9.96725 15.3233 10.2649Z" fill="#C80F2E"/>
<path d="M19.1918 54.5717L19.1477 54.5807C21.0465 53.3991 19.8718 51.1622 19.5098 49.8453L19.5804 49.6195C19.6775 49.4391 19.4745 49.0153 19.4745 49.0153C19.2362 48.8168 19.1831 47.7165 19.0593 47.2114C18.8564 46.3905 19.4214 44.9563 19.4214 44.4693C19.4214 43.9819 19.0593 43.3146 18.4059 42.4668C18.2468 42.2774 17.7698 38.1191 17.3459 37.0637C16.7542 35.6114 16.5774 35.8458 15.8711 34.1051C15.3322 32.8873 15.7562 31.0924 14.5375 26.9251L14.8111 26.6635C14.8111 26.6635 13.8396 23.0374 13.5216 22.0452C13.2123 21.053 12.6385 20.9898 12.6385 20.9898L12.6737 20.4757C12.718 20.3224 13.8572 17.3006 13.9543 17.2014C13.963 17.1383 15.5971 15.9927 15.6234 16.1641C15.7558 16.9037 16.3918 20.6651 16.6655 21.2605C16.9393 21.8648 17.8845 23.7049 18.3172 24.8505C16.6303 25.2744 15.3672 26.8349 15.3672 28.6841C15.3672 30.867 17.0984 32.6439 19.2357 32.6439C20.8693 32.6439 22.2827 31.6067 22.8478 30.1454L22.839 50.1973C22.8394 52.416 21.2761 54.247 19.1918 54.5717Z" fill="#C80F2E"/>
<path d="M13.0005 1.37106C11.5874 1.93031 11.3931 2.5527 11.3402 4.55517C11.1017 4.58223 10.607 4.34771 10.7749 5.56543C10.7749 5.56543 10.8633 6.37724 11.1812 6.24194C10.9339 8.00988 11.1304 8.45237 9.98019 8.57815C9.7329 8.60521 9.43249 8.62325 9.06167 8.64129L8.94686 8.80365C7.37477 8.957 6.59609 8.85439 5.58177 10.2198C5.19317 10.743 4.77807 11.4826 4.26582 12.538C4.26582 12.538 3.79772 13.7196 3.65629 14.2067C3.20586 15.1719 2.10187 17.3096 1.77509 18.6807C1.66923 19.1497 1.46597 19.2941 1.75743 19.9706C2.19019 20.9448 1.47481 21.1973 3.93008 21.1252V21.7024C3.93008 21.7024 3.27652 22.2797 3.13521 22.6225C3.00273 22.9743 2.62296 24.6971 2.64074 25.518C2.68478 27.6557 4.38946 29.4416 4.89276 31.5705L6.03208 31.733C6.65031 33.1852 9.35288 37.0997 9.98007 37.7312C9.9889 37.7402 9.99773 37.7494 10.0066 37.7584C10.1478 38.1281 10.8456 38.5883 11.2517 39.0483C11.4992 39.2918 12.6386 40.5547 14.1576 41.7545C14.7152 42.1948 15.3148 42.6293 15.9416 42.9992C15.924 42.9901 16.3126 43.784 16.5069 44.4333C15.7296 45.0736 17.2399 46.2465 17.6992 48.1858C17.7257 48.4471 17.2575 48.709 17.9553 49.3493C17.9111 52.2806 17.0369 53.8144 18.5029 54.6259H5.58177C3.2326 54.5718 1.33362 52.6056 1.33362 50.1971V5.80897C1.33362 3.38255 3.23248 1.42518 5.58177 1.37106H13.0005Z" fill="#1D4289"/>
<path fill-rule="evenodd" clip-rule="evenodd" d="M30.6648 1.34602V54.5643H36.2966C36.3114 40.8592 36.6156 27.0988 35.7899 13.5541L42.2827 54.5643H50.3635V1.34602H44.787C44.6734 15.4564 45.1639 29.3697 46.1008 43.1372L39.3541 1.34602H30.6648Z" fill="white"/>
<path fill-rule="evenodd" clip-rule="evenodd" d="M79.4857 1.30838L73.9503 54.5714H80.8373L81.7385 43.8012H86.244L87.1451 54.5714H94L88.6255 1.30838H79.4857ZM83.9912 16.3426L85.7291 37.5522H82.2534L83.9912 16.3426Z" fill="white"/>
<path d="M54.7052 1.34513V54.5346H64.7783C66.4294 54.5346 72.0515 53.061 72.0515 45.6758V35.0527C72.0515 33.9333 72.0608 30.4243 69.0586 28.3626C70.9345 28.3626 72.0515 24.6457 72.0515 21.2682V9.8731C72.0515 5.43322 69.3457 1.33305 63.9094 1.34513H54.7052ZM60.9164 8.14545H63.9737C65.3743 8.14545 65.8403 9.72458 65.8403 10.9391V23.3267C65.8403 25.4456 65.1583 25.6057 63.7485 25.6057H60.9164V8.14545ZM60.9164 31.4136H63.9737C65.3743 31.4136 65.8403 32.9927 65.8403 34.2072V45.2715C65.8403 46.7131 65.1366 47.8078 63.7485 47.8078L60.9164 47.8445V31.4135V31.4136Z" fill="white"/>
<path d="M2.85547 64.9941V68H1.09766V59.4688H4.42578C5.06641 59.4688 5.62891 59.5859 6.11328 59.8203C6.60156 60.0547 6.97656 60.3887 7.23828 60.8223C7.5 61.252 7.63086 61.7422 7.63086 62.293C7.63086 63.1289 7.34375 63.7891 6.76953 64.2734C6.19922 64.7539 5.4082 64.9941 4.39648 64.9941H2.85547ZM2.85547 63.5703H4.42578C4.89062 63.5703 5.24414 63.4609 5.48633 63.2422C5.73242 63.0234 5.85547 62.7109 5.85547 62.3047C5.85547 61.8867 5.73242 61.5488 5.48633 61.291C5.24023 61.0332 4.90039 60.9004 4.4668 60.8926H2.85547V63.5703Z" fill="white"/>
<path d="M10.6016 66.5879H14.334V68H8.84375V59.4688H10.6016V66.5879Z" fill="white"/>
<path d="M20.2812 66.2422H17.1992L16.6133 68H14.7441L17.9199 59.4688H19.5488L22.7422 68H20.873L20.2812 66.2422ZM17.6738 64.8184H19.8066L18.7344 61.625L17.6738 64.8184Z" fill="white"/>
<path d="M25.6016 63.3125L27.377 59.4688H29.2988L26.498 64.9062V68H24.7109V64.9062L21.9102 59.4688H23.8379L25.6016 63.3125Z" fill="white"/>
<path d="M35.2109 64.3027H31.8359V66.5879H35.7969V68H30.0781V59.4688H35.7852V60.8926H31.8359V62.9258H35.2109V64.3027Z" fill="white"/>
<path d="M39.9863 64.877H38.5859V68H36.8281V59.4688H39.998C41.0059 59.4688 41.7832 59.6934 42.3301 60.1426C42.877 60.5918 43.1504 61.2266 43.1504 62.0469C43.1504 62.6289 43.0234 63.1152 42.7695 63.5059C42.5195 63.8926 42.1387 64.2012 41.627 64.4316L43.4727 67.918V68H41.5859L39.9863 64.877ZM38.5859 63.4531H40.0039C40.4453 63.4531 40.7871 63.3418 41.0293 63.1191C41.2715 62.8926 41.3926 62.582 41.3926 62.1875C41.3926 61.7852 41.2773 61.4688 41.0469 61.2383C40.8203 61.0078 40.4707 60.8926 39.998 60.8926H38.5859V63.4531Z" fill="white"/>
<path d="M54.4238 68H52.666V64.3438H49.2383V68H47.4805V59.4688H49.2383V62.9258H52.666V59.4688H54.4238V68Z" fill="white"/>
<path d="M61.0977 64.3027H57.7227V66.5879H61.6836V68H55.9648V59.4688H61.6719V60.8926H57.7227V62.9258H61.0977V64.3027Z" fill="white"/>
<path d="M64.584 68H62.8262V59.4688H64.584V68Z" fill="white"/>
<path d="M72.9688 66.9219C72.6523 67.3008 72.2051 67.5957 71.627 67.8066C71.0488 68.0137 70.4082 68.1172 69.7051 68.1172C68.9668 68.1172 68.3184 67.957 67.7598 67.6367C67.2051 67.3125 66.7754 66.8438 66.4707 66.2305C66.1699 65.6172 66.0156 64.8965 66.0078 64.0684V63.4883C66.0078 62.6367 66.1504 61.9004 66.4355 61.2793C66.7246 60.6543 67.1387 60.1777 67.6777 59.8496C68.2207 59.5176 68.8555 59.3516 69.582 59.3516C70.5938 59.3516 71.3848 59.5938 71.9551 60.0781C72.5254 60.5586 72.8633 61.2598 72.9688 62.1816H71.2578C71.1797 61.6934 71.0059 61.3359 70.7363 61.1094C70.4707 60.8828 70.1035 60.7695 69.6348 60.7695C69.0371 60.7695 68.582 60.9941 68.2695 61.4434C67.957 61.8926 67.7988 62.5605 67.7949 63.4473V63.9922C67.7949 64.8867 67.9648 65.5625 68.3047 66.0195C68.6445 66.4766 69.1426 66.7051 69.7988 66.7051C70.459 66.7051 70.9297 66.5645 71.2109 66.2832V64.8125H69.6113V63.5176H72.9688V66.9219Z" fill="white"/>
<path d="M81.3418 68H79.584V64.3438H76.1562V68H74.3984V59.4688H76.1562V62.9258H79.584V59.4688H81.3418V68Z" fill="white"/>
<path d="M89.1289 60.8926H86.5156V68H84.7578V60.8926H82.1797V59.4688H89.1289V60.8926Z" fill="white"/>
<path d="M94.4668 65.7617C94.4668 65.4297 94.3496 65.1758 94.1152 65C93.8809 64.8203 93.459 64.6328 92.8496 64.4375C92.2402 64.2383 91.7578 64.043 91.4023 63.8516C90.4336 63.3281 89.9492 62.623 89.9492 61.7363C89.9492 61.2754 90.0781 60.8652 90.3359 60.5059C90.5977 60.1426 90.9707 59.8594 91.4551 59.6562C91.9434 59.4531 92.4902 59.3516 93.0957 59.3516C93.7051 59.3516 94.248 59.4629 94.7246 59.6855C95.2012 59.9043 95.5703 60.2148 95.832 60.6172C96.0977 61.0195 96.2305 61.4766 96.2305 61.9883H94.4727C94.4727 61.5977 94.3496 61.2949 94.1035 61.0801C93.8574 60.8613 93.5117 60.752 93.0664 60.752C92.6367 60.752 92.3027 60.8438 92.0645 61.0273C91.8262 61.207 91.707 61.4453 91.707 61.7422C91.707 62.0195 91.8457 62.252 92.123 62.4395C92.4043 62.627 92.8164 62.8027 93.3594 62.9668C94.3594 63.2676 95.0879 63.6406 95.5449 64.0859C96.002 64.5312 96.2305 65.0859 96.2305 65.75C96.2305 66.4883 95.9512 67.0684 95.3926 67.4902C94.834 67.9082 94.082 68.1172 93.1367 68.1172C92.4805 68.1172 91.8828 67.998 91.3438 67.7598C90.8047 67.5176 90.3926 67.1875 90.1074 66.7695C89.8262 66.3516 89.6855 65.8672 89.6855 65.3164H91.4492C91.4492 66.2578 92.0117 66.7285 93.1367 66.7285C93.5547 66.7285 93.8809 66.6445 94.1152 66.4766C94.3496 66.3047 94.4668 66.0664 94.4668 65.7617Z" fill="white"/>
</svg>
