<svg width="16" height="16" viewBox="0 0 16 16" fill="none" xmlns="http://www.w3.org/2000/svg">
<path d="M0.33005 8.29443C0.178427 8.38743 0.0677964 8.54057 0.0224894 8.72017C-0.0228177 8.89977 0.000908699 9.09112 0.0884506 9.25215L3.02285 14.6495C3.06621 14.7292 3.12395 14.7991 3.19275 14.8551C3.26155 14.9112 3.34008 14.9523 3.42385 14.9761C3.50762 15 3.59498 15.006 3.68096 14.994C3.76693 14.982 3.84983 14.9521 3.92493 14.906L15.6699 7.70574C15.745 7.65969 15.8108 7.59839 15.8636 7.52532C15.9164 7.45226 15.9551 7.36888 15.9775 7.27993C16 7.19098 16.0057 7.09821 15.9943 7.00692C15.983 6.91562 15.9549 6.82759 15.9115 6.74785L12.9771 1.35054C12.9337 1.2708 12.876 1.2009 12.8072 1.14485C12.7384 1.0888 12.6599 1.04769 12.5761 1.02387C12.4923 1.00005 12.405 0.993979 12.319 1.00601C12.233 1.01804 12.1501 1.04794 12.075 1.09399L0.33005 8.29443ZM1.56221 9.15819L12.1635 2.65892L14.4377 6.84181L13.6737 7.31021L12.8214 5.74223L12.2496 6.0929L13.1019 7.66071L12.2275 8.19691L11.375 6.62893L10.8032 6.97959L11.6556 8.54741L10.7822 9.08293L9.92973 7.51494L9.35789 7.86561L10.2104 9.43343L9.33597 9.96963L8.15133 7.79103L7.57949 8.14153L8.76413 10.3201L7.88957 10.8563L7.03709 9.28834L6.46525 9.639L7.31773 11.2068L6.44429 11.7422L5.59197 10.1744L5.02013 10.525L5.87245 12.0928L4.99805 12.6289L4.14557 11.061L3.57373 11.4117L4.42621 12.9795L3.83645 13.3411L1.56221 9.15819Z" fill="white"/>
</svg>
